<svg
    viewBox="0 0 25 25"
    fill="none"
    xmlns="http://www.w3.org/2000/svg"
>
    <path
        d="M5.54053 15.1078L4.67031 18.3565L1.4897 18.4237C0.53916 16.6607 0 14.6436 0 12.5C0 10.4272 0.504102 8.47252 1.39766 6.75137H1.39834L4.22998 7.27051L5.47041 10.0852C5.21079 10.842 5.06929 11.6545 5.06929 12.5C5.06938 13.4176 5.2356 14.2967 5.54053 15.1078Z"
        fill="#FBBB00"
    ></path>
    <path
        d="M24.7816 10.1648C24.9251 10.921 25 11.7019 25 12.5C25 13.3949 24.9059 14.2679 24.7266 15.1099C24.1181 17.9753 22.5282 20.4773 20.3256 22.2479L20.3249 22.2473L16.7583 22.0653L16.2535 18.9142C17.715 18.057 18.8572 16.7157 19.4589 15.1099H12.7748V10.1648H19.5564H24.7816Z"
        fill="#518EF8"
    ></path>
    <path
        d="M20.3249 22.2473L20.3256 22.248C18.1834 23.9698 15.4622 25 12.5 25C7.73972 25 3.601 22.3393 1.48972 18.4238L5.54055 15.1079C6.59616 17.9251 9.31389 19.9307 12.5 19.9307C13.8695 19.9307 15.1525 19.5605 16.2534 18.9142L20.3249 22.2473Z"
        fill="#28B446"
    ></path>
    <path
        d="M20.4787 2.87773L16.4293 6.19297C15.2899 5.48076 13.943 5.06934 12.5 5.06934C9.24177 5.06934 6.47321 7.16685 5.47048 10.0852L1.39836 6.75137H1.39767C3.47805 2.74038 7.66896 0 12.5 0C15.533 0 18.3139 1.08037 20.4787 2.87773Z"
        fill="#F14336"
    ></path>
</svg>
